<svg width="380" height="68" viewBox="0 0 380 68" fill="none" xmlns="http://www.w3.org/2000/svg">
<g filter="url(#filter0_d_108_33)">
<rect x="10" width="360" height="48" rx="10" fill="#02A28F" shape-rendering="crispEdges"/>
<path d="M42.36 31.24C41.28 31.24 40.2733 31.0667 39.34 30.72C38.42 30.36 37.62 29.8533 36.94 29.2C36.26 28.5467 35.7267 27.78 35.34 26.9C34.9667 26.02 34.78 25.0533 34.78 24C34.78 22.9467 34.9667 21.98 35.34 21.1C35.7267 20.22 36.26 19.4533 36.94 18.8C37.6333 18.1467 38.44 17.6467 39.36 17.3C40.28 16.94 41.2867 16.76 42.38 16.76C43.5933 16.76 44.6867 16.9733 45.66 17.4C46.6467 17.8133 47.4733 18.4267 48.14 19.24L46.06 21.16C45.58 20.6133 45.0467 20.2067 44.46 19.94C43.8733 19.66 43.2333 19.52 42.54 19.52C41.8867 19.52 41.2867 19.6267 40.74 19.84C40.1933 20.0533 39.72 20.36 39.32 20.76C38.92 21.16 38.6067 21.6333 38.38 22.18C38.1667 22.7267 38.06 23.3333 38.06 24C38.06 24.6667 38.1667 25.2733 38.38 25.82C38.6067 26.3667 38.92 26.84 39.32 27.24C39.72 27.64 40.1933 27.9467 40.74 28.16C41.2867 28.3733 41.8867 28.48 42.54 28.48C43.2333 28.48 43.8733 28.3467 44.46 28.08C45.0467 27.8 45.58 27.38 46.06 26.82L48.14 28.74C47.4733 29.5533 46.6467 30.1733 45.66 30.6C44.6867 31.0267 43.5867 31.24 42.36 31.24ZM56.6494 31V28.9L56.4494 28.44V24.68C56.4494 24.0133 56.2427 23.4933 55.8294 23.12C55.4294 22.7467 54.8094 22.56 53.9694 22.56C53.396 22.56 52.8294 22.6533 52.2694 22.84C51.7227 23.0133 51.256 23.2533 50.8694 23.56L49.7494 21.38C50.336 20.9667 51.0427 20.6467 51.8694 20.42C52.696 20.1933 53.536 20.08 54.3894 20.08C56.0294 20.08 57.3027 20.4667 58.2094 21.24C59.116 22.0133 59.5694 23.22 59.5694 24.86V31H56.6494ZM53.3694 31.16C52.5294 31.16 51.8094 31.02 51.2094 30.74C50.6094 30.4467 50.1494 30.0533 49.8294 29.56C49.5094 29.0667 49.3494 28.5133 49.3494 27.9C49.3494 27.26 49.5027 26.7 49.8094 26.22C50.1294 25.74 50.6294 25.3667 51.3094 25.1C51.9894 24.82 52.876 24.68 53.9694 24.68H56.8294V26.5H54.3094C53.576 26.5 53.0694 26.62 52.7894 26.86C52.5227 27.1 52.3894 27.4 52.3894 27.76C52.3894 28.16 52.5427 28.48 52.8494 28.72C53.1694 28.9467 53.6027 29.06 54.1494 29.06C54.6694 29.06 55.136 28.94 55.5494 28.7C55.9627 28.4467 56.2627 28.08 56.4494 27.6L56.9294 29.04C56.7027 29.7333 56.2894 30.26 55.6894 30.62C55.0894 30.98 54.316 31.16 53.3694 31.16ZM66.7931 31.16C65.5265 31.16 64.5398 30.84 63.8331 30.2C63.1265 29.5467 62.7731 28.58 62.7731 27.3V17.86H65.8931V27.26C65.8931 27.7133 66.0131 28.0667 66.2531 28.32C66.4931 28.56 66.8198 28.68 67.2331 28.68C67.7265 28.68 68.1465 28.5467 68.4931 28.28L69.3331 30.48C69.0131 30.7067 68.6265 30.88 68.1731 31C67.7331 31.1067 67.2731 31.16 66.7931 31.16ZM61.1131 22.88V20.48H68.5731V22.88H61.1131ZM76.0925 31.16C74.8658 31.16 73.7858 30.92 72.8525 30.44C71.9325 29.96 71.2192 29.3067 70.7125 28.48C70.2058 27.64 69.9525 26.6867 69.9525 25.62C69.9525 24.54 70.1992 23.5867 70.6925 22.76C71.1992 21.92 71.8858 21.2667 72.7525 20.8C73.6192 20.32 74.5992 20.08 75.6925 20.08C76.7458 20.08 77.6925 20.3067 78.5325 20.76C79.3858 21.2 80.0592 21.84 80.5525 22.68C81.0458 23.5067 81.2925 24.5 81.2925 25.66C81.2925 25.78 81.2858 25.92 81.2725 26.08C81.2592 26.2267 81.2458 26.3667 81.2325 26.5H72.4925V24.68H79.5925L78.3925 25.22C78.3925 24.66 78.2792 24.1733 78.0525 23.76C77.8258 23.3467 77.5125 23.0267 77.1125 22.8C76.7125 22.56 76.2458 22.44 75.7125 22.44C75.1792 22.44 74.7058 22.56 74.2925 22.8C73.8925 23.0267 73.5792 23.3533 73.3525 23.78C73.1258 24.1933 73.0125 24.6867 73.0125 25.26V25.74C73.0125 26.3267 73.1392 26.8467 73.3925 27.3C73.6592 27.74 74.0258 28.08 74.4925 28.32C74.9725 28.5467 75.5325 28.66 76.1725 28.66C76.7458 28.66 77.2458 28.5733 77.6725 28.4C78.1125 28.2267 78.5125 27.9667 78.8725 27.62L80.5325 29.42C80.0392 29.98 79.4192 30.4133 78.6725 30.72C77.9258 31.0133 77.0658 31.16 76.0925 31.16ZM88.4297 35.04C87.4164 35.04 86.4364 34.9133 85.4897 34.66C84.5564 34.42 83.7764 34.0533 83.1497 33.56L84.3897 31.32C84.843 31.6933 85.4164 31.9867 86.1097 32.2C86.8164 32.4267 87.5097 32.54 88.1897 32.54C89.2964 32.54 90.0964 32.2933 90.5897 31.8C91.0964 31.3067 91.3497 30.5733 91.3497 29.6V27.98L91.5497 25.28L91.5097 22.56V20.24H94.4697V29.2C94.4697 31.2 93.9497 32.6733 92.9097 33.62C91.8697 34.5667 90.3764 35.04 88.4297 35.04ZM87.9497 30.48C86.9497 30.48 86.043 30.2667 85.2297 29.84C84.4297 29.4 83.783 28.7933 83.2897 28.02C82.8097 27.2333 82.5697 26.32 82.5697 25.28C82.5697 24.2267 82.8097 23.3133 83.2897 22.54C83.783 21.7533 84.4297 21.1467 85.2297 20.72C86.043 20.2933 86.9497 20.08 87.9497 20.08C88.8564 20.08 89.6564 20.2667 90.3497 20.64C91.043 21 91.583 21.5667 91.9697 22.34C92.3564 23.1 92.5497 24.08 92.5497 25.28C92.5497 26.4667 92.3564 27.4467 91.9697 28.22C91.583 28.98 91.043 29.5467 90.3497 29.92C89.6564 30.2933 88.8564 30.48 87.9497 30.48ZM88.5697 27.92C89.1164 27.92 89.603 27.8133 90.0297 27.6C90.4564 27.3733 90.7897 27.06 91.0297 26.66C91.2697 26.26 91.3897 25.8 91.3897 25.28C91.3897 24.7467 91.2697 24.2867 91.0297 23.9C90.7897 23.5 90.4564 23.1933 90.0297 22.98C89.603 22.7533 89.1164 22.64 88.5697 22.64C88.023 22.64 87.5364 22.7533 87.1097 22.98C86.683 23.1933 86.343 23.5 86.0897 23.9C85.8497 24.2867 85.7297 24.7467 85.7297 25.28C85.7297 25.8 85.8497 26.26 86.0897 26.66C86.343 27.06 86.683 27.3733 87.1097 27.6C87.5364 27.8133 88.023 27.92 88.5697 27.92ZM102.494 31.16C101.347 31.16 100.327 30.92 99.4336 30.44C98.5536 29.96 97.8536 29.3067 97.3336 28.48C96.8269 27.64 96.5736 26.6867 96.5736 25.62C96.5736 24.54 96.8269 23.5867 97.3336 22.76C97.8536 21.92 98.5536 21.2667 99.4336 20.8C100.327 20.32 101.347 20.08 102.494 20.08C103.627 20.08 104.64 20.32 105.534 20.8C106.427 21.2667 107.127 21.9133 107.634 22.74C108.14 23.5667 108.394 24.5267 108.394 25.62C108.394 26.6867 108.14 27.64 107.634 28.48C107.127 29.3067 106.427 29.96 105.534 30.44C104.64 30.92 103.627 31.16 102.494 31.16ZM102.494 28.6C103.014 28.6 103.48 28.48 103.894 28.24C104.307 28 104.634 27.66 104.874 27.22C105.114 26.7667 105.234 26.2333 105.234 25.62C105.234 24.9933 105.114 24.46 104.874 24.02C104.634 23.58 104.307 23.24 103.894 23C103.48 22.76 103.014 22.64 102.494 22.64C101.974 22.64 101.507 22.76 101.094 23C100.68 23.24 100.347 23.58 100.094 24.02C99.8536 24.46 99.7336 24.9933 99.7336 25.62C99.7336 26.2333 99.8536 26.7667 100.094 27.22C100.347 27.66 100.68 28 101.094 28.24C101.507 28.48 101.974 28.6 102.494 28.6ZM110.479 31V20.24H113.459V23.28L113.039 22.4C113.359 21.64 113.872 21.0667 114.579 20.68C115.286 20.28 116.146 20.08 117.159 20.08V22.96C117.026 22.9467 116.906 22.94 116.799 22.94C116.692 22.9267 116.579 22.92 116.459 22.92C115.606 22.92 114.912 23.1667 114.379 23.66C113.859 24.14 113.599 24.8933 113.599 25.92V31H110.479ZM119.034 31V20.24H122.154V31H119.034ZM120.594 18.74C120.02 18.74 119.554 18.5733 119.194 18.24C118.834 17.9067 118.654 17.4933 118.654 17C118.654 16.5067 118.834 16.0933 119.194 15.76C119.554 15.4267 120.02 15.26 120.594 15.26C121.167 15.26 121.634 15.42 121.994 15.74C122.354 16.0467 122.534 16.4467 122.534 16.94C122.534 17.46 122.354 17.8933 121.994 18.24C121.647 18.5733 121.18 18.74 120.594 18.74ZM131.649 31V28.9L131.449 28.44V24.68C131.449 24.0133 131.243 23.4933 130.829 23.12C130.429 22.7467 129.809 22.56 128.969 22.56C128.396 22.56 127.829 22.6533 127.269 22.84C126.723 23.0133 126.256 23.2533 125.869 23.56L124.749 21.38C125.336 20.9667 126.043 20.6467 126.869 20.42C127.696 20.1933 128.536 20.08 129.389 20.08C131.029 20.08 132.303 20.4667 133.209 21.24C134.116 22.0133 134.569 23.22 134.569 24.86V31H131.649ZM128.369 31.16C127.529 31.16 126.809 31.02 126.209 30.74C125.609 30.4467 125.149 30.0533 124.829 29.56C124.509 29.0667 124.349 28.5133 124.349 27.9C124.349 27.26 124.503 26.7 124.809 26.22C125.129 25.74 125.629 25.3667 126.309 25.1C126.989 24.82 127.876 24.68 128.969 24.68H131.829V26.5H129.309C128.576 26.5 128.069 26.62 127.789 26.86C127.523 27.1 127.389 27.4 127.389 27.76C127.389 28.16 127.543 28.48 127.849 28.72C128.169 28.9467 128.603 29.06 129.149 29.06C129.669 29.06 130.136 28.94 130.549 28.7C130.963 28.4467 131.263 28.08 131.449 27.6L131.929 29.04C131.703 29.7333 131.289 30.26 130.689 30.62C130.089 30.98 129.316 31.16 128.369 31.16ZM141.013 31.16C140.093 31.16 139.206 31.0533 138.353 30.84C137.513 30.6133 136.846 30.3333 136.353 30L137.393 27.76C137.886 28.0667 138.466 28.32 139.133 28.52C139.813 28.7067 140.48 28.8 141.133 28.8C141.853 28.8 142.36 28.7133 142.653 28.54C142.96 28.3667 143.113 28.1267 143.113 27.82C143.113 27.5667 142.993 27.38 142.753 27.26C142.526 27.1267 142.22 27.0267 141.833 26.96C141.446 26.8933 141.02 26.8267 140.553 26.76C140.1 26.6933 139.64 26.6067 139.173 26.5C138.706 26.38 138.28 26.2067 137.893 25.98C137.506 25.7533 137.193 25.4467 136.953 25.06C136.726 24.6733 136.613 24.1733 136.613 23.56C136.613 22.88 136.806 22.28 137.193 21.76C137.593 21.24 138.166 20.8333 138.913 20.54C139.66 20.2333 140.553 20.08 141.593 20.08C142.326 20.08 143.073 20.16 143.833 20.32C144.593 20.48 145.226 20.7133 145.733 21.02L144.693 23.24C144.173 22.9333 143.646 22.7267 143.113 22.62C142.593 22.5 142.086 22.44 141.593 22.44C140.9 22.44 140.393 22.5333 140.073 22.72C139.753 22.9067 139.593 23.1467 139.593 23.44C139.593 23.7067 139.706 23.9067 139.933 24.04C140.173 24.1733 140.486 24.28 140.873 24.36C141.26 24.44 141.68 24.5133 142.133 24.58C142.6 24.6333 143.066 24.72 143.533 24.84C144 24.96 144.42 25.1333 144.793 25.36C145.18 25.5733 145.493 25.8733 145.733 26.26C145.973 26.6333 146.093 27.1267 146.093 27.74C146.093 28.4067 145.893 29 145.493 29.52C145.093 30.0267 144.513 30.4267 143.753 30.72C143.006 31.0133 142.093 31.16 141.013 31.16Z" fill="white"/>
</g>
<defs>
<filter id="filter0_d_108_33" x="0" y="0" width="380" height="68" filterUnits="userSpaceOnUse" color-interpolation-filters="sRGB">
<feFlood flood-opacity="0" result="BackgroundImageFix"/>
<feColorMatrix in="SourceAlpha" type="matrix" values="0 0 0 0 0 0 0 0 0 0 0 0 0 0 0 0 0 0 127 0" result="hardAlpha"/>
<feOffset dy="10"/>
<feGaussianBlur stdDeviation="5"/>
<feComposite in2="hardAlpha" operator="out"/>
<feColorMatrix type="matrix" values="0 0 0 0 0 0 0 0 0 0 0 0 0 0 0 0 0 0 0.1 0"/>
<feBlend mode="normal" in2="BackgroundImageFix" result="effect1_dropShadow_108_33"/>
<feBlend mode="normal" in="SourceGraphic" in2="effect1_dropShadow_108_33" result="shape"/>
</filter>
</defs>
</svg>
